<?xml version="1.0" standalone="no"?>
<!DOCTYPE svg PUBLIC "-//W3C//DTD SVG 20010904//EN"
 "http://www.w3.org/TR/2001/REC-SVG-20010904/DTD/svg10.dtd">
<svg version="1.0" xmlns="http://www.w3.org/2000/svg"
 width="533.000000pt" height="520.000000pt" viewBox="0 0 533.000000 520.000000"
 preserveAspectRatio="xMidYMid meet">

<g transform="translate(0.000000,520.000000) scale(0.100000,-0.100000)"
fill="#000000" stroke="none">
<path d="M1554 5100 c-107 -21 -209 -103 -260 -206 -28 -57 -29 -64 -32 -236
l-4 -176 -176 -4 c-172 -3 -179 -4 -236 -32 -107 -52 -180 -147 -205 -264 -6
-29 -11 -142 -11 -251 l0 -199 -112 -3 c-100 -4 -120 -7 -172 -33 -110 -54
-182 -149 -206 -271 -8 -41 -10 -173 -8 -415 3 -348 4 -356 27 -415 33 -83
124 -173 206 -205 54 -22 81 -24 269 -29 l210 -6 116 -225 c64 -124 120 -233
126 -243 9 -15 32 24 135 225 l124 243 64 0 63 0 156 -303 c129 -251 158 -301
167 -288 7 9 79 146 161 306 l149 290 497 0 497 0 92 -181 c82 -160 94 -179
106 -163 7 10 50 91 95 181 l83 163 90 0 90 0 155 -305 c85 -168 157 -305 160
-305 3 0 75 136 160 303 l155 302 275 6 c299 6 318 9 404 68 84 58 137 144
156 253 8 44 10 181 8 409 -4 402 -7 413 -105 519 -82 89 -140 113 -279 118
l-112 4 -4 227 c-4 205 -7 231 -27 284 -30 76 -114 167 -189 204 -55 27 -64
28 -234 31 l-176 4 -4 171 c-3 165 -4 175 -32 234 -49 106 -151 188 -264 212
-63 13 -2081 14 -2148 1z m2194 -144 c28 -16 64 -44 78 -63 51 -66 54 -87 54
-318 l0 -215 215 0 c231 0 252 -3 318 -54 19 -14 47 -50 63 -78 l29 -53 3
-282 3 -283 150 0 c160 0 189 -6 252 -54 19 -14 47 -50 63 -78 l29 -53 3 -353
c4 -416 1 -434 -77 -512 -75 -75 -101 -80 -435 -80 l-281 0 -120 -235 c-66
-129 -122 -235 -125 -235 -3 0 -59 106 -125 235 l-120 235 -160 0 -160 0 -47
-93 c-75 -147 -65 -146 -132 -18 l-57 111 -569 0 -568 0 -111 -217 c-60 -120
-116 -226 -124 -237 -12 -16 -25 4 -133 215 l-119 234 -135 3 -135 2 -85 -167
c-47 -91 -89 -167 -95 -167 -5 -1 -48 74 -95 166 l-85 166 -240 4 c-267 3
-283 7 -351 80 -70 74 -69 65 -72 467 -3 401 -1 422 58 493 17 20 53 48 82 62
49 25 60 26 205 26 l153 0 0 268 c0 295 5 327 60 394 17 20 53 48 82 62 51 26
55 26 270 26 l218 0 0 218 c0 215 0 219 26 270 14 29 42 66 62 82 74 61 28 59
1177 57 l1050 -2 53 -29z"/>
<path d="M2587 4712 c-14 -15 -17 -41 -17 -135 0 -128 8 -147 60 -147 48 0 60
29 60 150 0 79 -4 111 -16 128 -19 27 -64 29 -87 4z"/>
<path d="M2090 4580 c-11 -11 -20 -29 -20 -39 0 -22 165 -311 183 -323 37 -23
87 5 87 48 0 27 -152 301 -178 322 -23 18 -49 15 -72 -8z"/>
<path d="M3097 4588 c-9 -7 -55 -80 -102 -162 -87 -153 -93 -175 -57 -203 28
-22 60 -15 85 20 39 53 167 283 167 301 0 22 -36 56 -58 56 -10 0 -26 -6 -35
-12z"/>
<path d="M1723 4218 c-20 -26 -23 -51 -9 -73 18 -28 185 -125 214 -125 47 0
71 71 35 102 -10 9 -54 36 -99 62 -82 46 -123 56 -141 34z"/>
<path d="M3383 4178 c-98 -56 -119 -81 -103 -123 15 -39 55 -43 114 -10 128
71 156 93 156 124 0 35 -23 61 -53 61 -12 0 -63 -24 -114 -52z"/>
<path d="M2513 4156 c-88 -22 -164 -65 -233 -135 -76 -77 -115 -150 -137 -260
-30 -145 18 -313 121 -425 39 -42 43 -51 34 -71 -15 -32 -2 -72 24 -81 13 -4
155 -7 316 -7 266 1 295 2 312 18 24 22 26 58 5 75 -13 11 -9 20 33 64 94 100
134 200 135 336 2 321 -299 561 -610 486z m268 -139 c108 -48 186 -143 216
-262 40 -164 -47 -344 -205 -422 -79 -39 -210 -45 -294 -13 -155 58 -243 188
-243 360 1 70 5 95 27 142 47 102 143 185 247 215 69 19 184 10 252 -20z"/>
<path d="M1587 3712 c-23 -25 -21 -58 3 -82 18 -18 33 -20 159 -20 125 0 141
2 165 21 30 23 33 45 10 77 -14 21 -21 22 -168 22 -135 0 -155 -2 -169 -18z"/>
<path d="M3337 3712 c-23 -25 -21 -58 3 -82 18 -18 33 -20 159 -20 125 0 141
2 165 21 30 23 33 45 10 77 -14 21 -21 22 -168 22 -135 0 -155 -2 -169 -18z"/>
<path d="M2340 3090 c-25 -25 -26 -62 -2 -83 16 -15 52 -17 295 -17 274 0 276
0 291 22 23 32 20 54 -10 77 -25 20 -39 21 -290 21 -251 0 -265 -1 -284 -20z"/>
<path d="M2370 2900 c-11 -11 -20 -29 -20 -40 0 -40 35 -60 103 -60 55 0 67
-3 87 -25 12 -13 38 -29 56 -35 42 -14 91 0 124 35 20 21 33 25 85 25 68 0 91
12 100 52 5 19 1 32 -14 47 -20 20 -31 21 -261 21 -227 0 -241 -1 -260 -20z"/>
<path d="M3100 1846 c-130 -28 -237 -112 -296 -232 -32 -64 -37 -85 -41 -166
-7 -124 19 -201 102 -314 7 -10 3 -18 -15 -31 -102 -70 -198 -201 -241 -327
-30 -86 -46 -205 -35 -251 15 -59 164 -85 524 -92 l264 -5 -7 -27 c-22 -83
-35 -162 -35 -208 0 -43 4 -55 25 -71 94 -74 785 -97 1083 -36 133 27 139 35
129 163 -14 175 -114 357 -256 464 l-58 43 30 35 c16 19 43 62 59 96 101 213
12 465 -201 571 -73 36 -77 37 -190 37 -105 0 -121 -2 -174 -27 -32 -15 -76
-41 -97 -58 -44 -35 -54 -37 -45 -11 10 31 -14 150 -41 208 -33 70 -119 161
-183 196 -52 29 -163 57 -216 56 -16 0 -55 -6 -85 -13z m218 -136 c139 -61
217 -223 177 -366 -79 -282 -455 -317 -590 -54 -27 51 -32 174 -11 238 19 57
78 129 133 163 84 52 199 59 291 19z m734 -346 c64 -21 140 -91 175 -162 39
-81 40 -183 0 -263 -115 -236 -453 -238 -567 -4 -37 75 -40 186 -8 257 33 71
75 118 137 152 87 47 160 52 263 20z m-997 -355 c82 -29 224 -24 303 11 l53
23 54 -38 c30 -21 55 -43 55 -49 0 -21 57 -131 85 -165 l29 -33 -30 -22 c-49
-35 -120 -105 -148 -145 l-27 -38 -162 -7 c-231 -10 -562 19 -574 50 -9 24 19
128 53 200 50 106 193 252 234 240 8 -3 42 -15 75 -27z m1226 -440 c78 -78
134 -182 152 -282 6 -36 8 -69 5 -72 -3 -4 -48 -14 -99 -23 -135 -24 -663 -24
-798 0 -51 9 -95 19 -98 22 -12 12 23 144 55 209 41 82 142 194 206 227 l44
24 63 -20 c83 -25 194 -24 269 3 l55 20 40 -21 c22 -11 69 -51 106 -87z"/>
<path d="M1060 1711 c-100 -32 -191 -105 -243 -194 -86 -146 -73 -348 29 -483
l28 -36 -39 -31 c-130 -101 -216 -240 -249 -400 -22 -103 -21 -170 2 -189 46
-41 225 -67 513 -75 l227 -6 -5 -77 c-5 -74 -5 -77 21 -97 95 -75 784 -98
1084 -37 133 27 139 35 129 163 -14 175 -114 357 -256 464 l-58 43 30 35 c16
19 43 62 59 96 101 213 12 465 -201 571 -73 36 -77 37 -190 37 -106 0 -121 -2
-175 -28 -33 -15 -79 -43 -102 -62 l-43 -35 -15 53 c-65 225 -322 360 -546
288z m266 -129 c90 -46 141 -108 169 -207 32 -109 -2 -223 -91 -304 -155 -142
-399 -98 -496 89 -19 38 -23 60 -23 140 0 80 4 102 23 139 33 62 104 126 165
150 69 28 193 25 253 -7z m726 -218 c64 -21 140 -91 175 -162 58 -119 29 -268
-71 -360 -114 -105 -305 -109 -424 -7 -22 20 -54 63 -71 97 -27 52 -31 72 -31
138 0 66 4 86 30 138 75 149 225 209 392 156z m-1012 -476 c81 -32 212 -31
302 1 61 22 70 23 94 10 36 -18 118 -93 144 -130 l21 -28 -78 -78 c-58 -58
-90 -100 -122 -162 l-43 -84 -247 6 c-217 5 -401 23 -418 41 -3 3 0 34 7 70
14 76 56 169 106 237 39 53 140 139 164 139 8 0 40 -10 70 -22z m900 -251 c62
0 101 6 142 21 l58 20 60 -40 c78 -52 142 -126 186 -214 33 -66 65 -196 52
-209 -3 -4 -48 -14 -99 -23 -122 -21 -639 -24 -769 -4 -140 22 -133 18 -125
69 9 60 40 147 72 202 36 62 117 147 178 186 l50 32 55 -20 c38 -14 81 -20
140 -20z"/>
</g>
</svg>
