<?xml version="1.0" standalone="no"?>
<!DOCTYPE svg PUBLIC "-//W3C//DTD SVG 20010904//EN"
 "http://www.w3.org/TR/2001/REC-SVG-20010904/DTD/svg10.dtd">
<svg version="1.0" xmlns="http://www.w3.org/2000/svg"
 width="622.000000pt" height="567.000000pt" viewBox="0 0 622.000000 567.000000"
 preserveAspectRatio="xMidYMid meet">

<g transform="translate(0.000000,567.000000) scale(0.100000,-0.100000)"
fill="#000000" stroke="none">
<path d="M2050 5581 c-438 -93 -771 -426 -860 -861 -29 -139 -24 -360 10 -490
42 -161 154 -374 234 -449 14 -14 26 -28 26 -33 0 -5 -25 -38 -56 -75 -223
-262 -356 -612 -371 -976 l-6 -137 -50 -15 c-77 -23 -85 -21 -92 23 -18 107
-67 195 -128 232 -46 28 -124 27 -168 -3 -47 -31 -79 -98 -79 -164 0 -98 52
-174 145 -214 30 -13 53 -28 52 -34 -2 -5 -23 -21 -48 -35 -38 -21 -56 -25
-129 -24 -103 0 -170 26 -223 85 -26 28 -43 39 -65 39 -37 0 -62 -28 -62 -69
0 -64 123 -154 248 -180 174 -36 336 17 407 135 l30 50 84 18 c46 9 85 15 87
14 2 -2 10 -51 19 -108 8 -58 26 -145 38 -195 l23 -89 -54 -76 c-76 -105 -176
-315 -206 -430 -64 -245 -59 -491 15 -690 72 -195 221 -358 419 -459 169 -86
321 -124 565 -142 154 -11 161 -12 190 -40 17 -15 43 -33 58 -38 19 -7 225
-11 614 -11 l585 0 40 22 c62 35 82 77 86 184 4 74 1 99 -15 135 -17 40 -18
47 -4 74 8 17 17 58 19 92 l4 61 92 7 c50 4 147 15 216 25 69 10 126 17 127
16 1 -1 9 -86 17 -190 18 -214 27 -243 92 -291 64 -49 143 -70 259 -70 114 1
185 18 258 65 77 48 81 67 110 425 16 192 29 311 36 313 29 10 233 138 295
186 89 68 239 220 305 307 113 151 193 305 252 489 l36 115 139 5 c129 5 142
7 186 33 26 15 59 42 72 60 55 72 56 80 56 434 0 308 -2 331 -21 373 -25 56
-62 95 -114 123 -34 19 -62 23 -184 27 l-144 5 -46 115 c-89 222 -209 407
-374 576 l-69 71 74 60 c105 87 165 154 198 226 48 100 37 179 -36 257 -56 60
-148 105 -290 141 -368 93 -643 37 -871 -175 l-33 -30 -87 17 c-151 28 -322
48 -468 55 l-140 7 -6 90 c-37 506 -411 923 -908 1010 -114 20 -305 18 -411
-4z m460 -140 c116 -30 268 -107 367 -186 273 -218 408 -575 348 -918 -17 -95
-68 -247 -93 -276 -12 -13 -42 -21 -103 -29 -154 -19 -432 -91 -571 -147 -13
-5 -18 3 -25 47 l-9 53 47 27 c63 37 124 108 139 165 11 37 11 63 1 132 -15
106 -42 164 -93 201 -49 36 -103 48 -259 58 -174 11 -187 21 -204 167 -8 67
17 108 88 140 65 31 126 32 185 4 46 -23 72 -63 72 -112 0 -30 35 -67 63 -67
12 0 33 7 46 16 21 15 23 22 18 74 -11 126 -101 219 -229 238 l-52 7 -13 69
c-14 79 -29 99 -73 99 -58 0 -70 -29 -56 -134 l8 -56 -56 -32 c-95 -53 -144
-152 -132 -267 10 -103 34 -165 77 -206 51 -48 111 -66 257 -73 187 -10 202
-20 222 -137 15 -82 0 -121 -61 -160 -104 -68 -245 -39 -269 54 -18 66 -33 92
-62 102 -44 15 -78 -14 -78 -67 0 -131 95 -234 234 -253 36 -5 47 -11 51 -28
8 -32 24 -121 22 -121 -15 0 -208 -107 -289 -161 l-109 -72 -70 34 c-253 121
-445 356 -521 634 -33 123 -33 357 0 480 26 96 84 224 133 297 152 226 401
383 674 426 75 12 291 -1 375 -22z m2350 -941 c138 -28 219 -55 272 -90 57
-38 75 -75 58 -125 -15 -47 -105 -142 -202 -216 -132 -101 -248 -227 -327
-356 -18 -29 -34 -53 -37 -53 -2 0 -38 14 -79 30 -219 87 -346 179 -407 292
-20 37 -23 58 -23 143 0 83 4 107 22 140 54 102 225 214 378 248 58 13 253 6
345 -13z m-1245 -160 c61 -5 172 -20 248 -31 l139 -22 -6 -26 c-42 -183 -12
-322 99 -448 84 -96 260 -197 473 -273 73 -26 97 -31 115 -23 13 6 44 46 69
89 26 44 75 114 110 158 l63 78 91 -94 c150 -156 278 -364 358 -583 21 -55 46
-108 58 -117 17 -16 42 -18 180 -18 l160 0 39 -39 39 -39 0 -306 c0 -339 -2
-349 -63 -386 -28 -17 -51 -20 -182 -20 -180 0 -188 -3 -206 -88 -29 -142
-115 -345 -207 -487 -301 -469 -899 -757 -1704 -820 l-88 -7 -35 31 c-20 17
-42 31 -50 31 -12 0 -15 19 -15 100 l0 100 103 0 c124 0 172 18 213 79 22 34
27 55 32 131 2 49 6 90 7 90 1 0 39 -11 85 -25 178 -53 250 -19 299 144 37
122 23 189 -51 244 -22 16 -1100 347 -1130 347 -6 0 -42 30 -81 66 -40 36
-111 91 -159 122 -86 54 -88 57 -88 94 0 44 -21 90 -48 110 -11 7 -22 31 -26
53 -4 21 -16 51 -27 66 -10 15 -19 32 -19 38 0 25 61 130 123 213 36 48 71
104 78 125 68 204 -135 391 -320 294 -36 -18 -41 -18 -53 -4 -18 22 -87 53
-118 53 -14 0 -43 -9 -64 -19 -33 -17 -41 -18 -60 -6 -55 35 -139 24 -191 -25
-20 -19 -21 -19 -70 6 -146 75 -325 -45 -325 -217 0 -59 27 -120 91 -204 34
-44 77 -112 96 -150 l35 -71 -26 -38 c-14 -21 -26 -51 -26 -66 0 -16 -10 -36
-26 -51 -32 -29 -54 -78 -54 -118 0 -26 -10 -36 -82 -84 -46 -29 -107 -75
-136 -102 -29 -26 -56 -45 -59 -41 -13 13 -43 197 -55 334 -29 356 54 685 248
978 29 45 74 104 100 132 l46 52 61 -44 c34 -24 88 -58 120 -76 l58 -33 -37
-38 c-59 -61 -46 -132 25 -132 22 0 45 13 88 54 318 293 807 492 1323 538 63
6 141 11 173 11 65 0 97 22 97 65 0 47 -31 65 -114 65 l-73 0 28 80 c16 44 34
109 40 145 l12 65 71 0 c39 0 121 -5 181 -10z m-1660 -1181 c41 -65 101 -62
130 6 27 66 75 37 75 -44 0 -49 27 -81 68 -81 32 0 50 17 75 73 20 45 72 80
107 72 14 -3 37 -19 53 -36 39 -43 37 -92 -7 -155 -104 -148 -131 -192 -157
-252 l-28 -67 -43 0 -43 0 3 50 c2 28 10 75 18 106 18 73 18 75 -6 99 -25 25
-72 26 -92 3 -22 -26 -28 -48 -47 -158 -17 -95 -19 -100 -44 -103 -24 -3 -26
0 -32 45 -13 103 -37 195 -56 214 -23 23 -57 24 -87 3 -26 -18 -27 -44 -7
-129 8 -33 15 -77 15 -97 0 -38 0 -38 -40 -38 l-39 0 -45 93 c-24 50 -70 126
-101 167 -92 122 -101 149 -66 206 26 42 71 60 111 44 33 -14 70 -58 70 -84 0
-25 37 -56 67 -56 41 0 63 26 63 75 0 44 33 101 51 89 5 -3 21 -23 34 -45z
m-1253 -486 c22 -26 44 -73 51 -110 6 -30 4 -33 -19 -33 -35 0 -94 59 -94 95
0 57 32 82 62 48z m1599 -162 c-35 -32 -39 -56 -15 -89 12 -18 25 -22 65 -22
27 0 49 -4 49 -10 0 -6 -135 -10 -386 -10 -254 0 -383 3 -379 10 3 6 26 10 50
10 53 0 75 19 75 65 0 25 -7 39 -27 54 l-28 20 314 1 313 0 -31 -29z m202
-297 c70 -41 126 -82 179 -132 34 -32 35 -37 23 -56 -23 -34 -55 -148 -55
-194 0 -107 44 -146 228 -199 89 -25 137 -44 143 -55 9 -17 -6 -18 -253 -18
l-263 1 -35 56 c-61 98 -201 195 -320 222 -81 19 -227 13 -301 -12 -138 -47
-251 -141 -316 -263 -44 -83 -63 -162 -63 -266 0 -275 202 -505 478 -543 l52
-7 0 -80 c0 -51 6 -92 15 -112 14 -29 14 -36 0 -62 -8 -16 -15 -53 -15 -81 l0
-53 -97 0 c-195 0 -379 41 -543 122 -91 45 -117 64 -196 143 -70 70 -100 109
-133 172 -235 459 13 1138 522 1429 l42 24 423 0 424 0 61 -36z m940 -414
c417 -125 478 -145 482 -164 7 -29 -27 -137 -47 -149 -11 -8 -152 31 -544 147
-291 87 -536 164 -544 172 -12 12 -12 22 3 81 10 38 25 73 33 80 18 13 -28 26
617 -167z m-1252 -117 c36 -17 88 -52 115 -78 l49 -48 -29 -12 c-83 -35 -121
-116 -114 -242 l3 -68 -120 -5 c-132 -6 -150 -12 -192 -67 -26 -33 -28 -46
-33 -144 l-5 -108 -44 22 c-68 34 -143 113 -182 192 -32 66 -34 75 -34 175 0
97 2 110 31 171 54 113 136 188 250 229 90 32 216 25 305 -17z m1317 -348 c2
-66 0 -82 -14 -92 -23 -17 -1094 -19 -1125 -3 -16 9 -19 22 -19 89 0 43 3 81
7 84 3 4 263 6 577 5 l571 -3 3 -80z m-348 -254 c16 -31 13 -137 -6 -155 -14
-14 -79 -16 -565 -16 -360 0 -557 4 -570 10 -16 9 -19 22 -19 83 0 44 5 78 12
85 9 9 150 12 575 12 546 0 563 -1 573 -19z m1309 -407 c-14 -168 -26 -267
-35 -281 -43 -69 -304 -76 -379 -10 -24 21 -26 31 -40 202 -8 98 -15 184 -15
191 0 6 28 17 63 23 60 12 374 113 406 131 9 4 17 7 18 6 2 -1 -7 -119 -18
-262z m-1189 96 c11 -7 15 -29 15 -85 0 -56 -4 -78 -15 -85 -24 -15 -1123 -13
-1138 2 -7 7 -12 41 -12 83 0 42 5 76 12 83 15 15 1114 17 1138 2z m4 -332
c18 -26 22 -119 6 -149 -10 -18 -27 -19 -573 -19 -425 0 -566 3 -575 12 -7 7
-12 41 -12 83 0 42 5 76 12 83 9 9 149 12 569 12 l558 0 15 -22z"/>
<path d="M4540 3396 c-68 -19 -128 -53 -181 -103 -39 -36 -49 -52 -49 -78 0
-18 8 -39 18 -48 32 -29 67 -21 122 28 69 61 111 78 195 78 84 0 126 -17 195
-78 56 -49 95 -58 123 -27 32 35 22 75 -32 125 -107 100 -257 140 -391 103z"/>
</g>
</svg>
