<?xml version="1.0" standalone="no"?>
<!DOCTYPE svg PUBLIC "-//W3C//DTD SVG 20010904//EN"
 "http://www.w3.org/TR/2001/REC-SVG-20010904/DTD/svg10.dtd">
<svg version="1.0" xmlns="http://www.w3.org/2000/svg"
 width="2000.000000pt" height="535.000000pt" viewBox="0 0 2000.000000 535.000000"
 preserveAspectRatio="xMidYMid meet">

<g transform="translate(0.000000,535.000000) scale(0.100000,-0.100000)"
fill="#000000" stroke="none">
<path d="M2735 5289 c-205 -26 -387 -188 -441 -394 -19 -69 -18 -209 2 -276
55 -185 188 -318 373 -373 68 -20 207 -21 280 -1 173 46 318 184 372 354 29
91 29 231 0 322 -78 247 -326 402 -586 368z m164 -301 c18 -6 52 -27 74 -47
165 -149 62 -421 -160 -421 -102 0 -181 49 -223 137 -18 38 -21 60 -18 119 3
61 8 79 33 116 71 100 172 133 294 96z"/>
<path d="M2242 4026 c-208 -51 -388 -236 -431 -444 -7 -32 -11 -181 -11 -371
0 -456 -41 -421 493 -421 l377 0 0 -237 0 -238 -287 -285 c-159 -157 -298
-298 -310 -314 -34 -44 -32 -124 3 -166 52 -61 115 -75 182 -41 20 11 154 137
297 280 l260 261 275 -274 c237 -236 280 -275 312 -281 75 -14 137 20 164 90
33 88 29 93 -307 430 l-299 300 0 237 0 237 384 3 c370 3 386 4 412 24 15 11
37 33 48 48 20 27 21 39 20 359 l0 332 -27 80 c-65 195 -225 344 -418 390 -86
20 -1053 21 -1137 1z m1137 -311 c29 -16 68 -47 87 -68 57 -68 64 -104 64
-349 l0 -218 -720 0 -720 0 0 223 c0 201 2 226 21 267 28 61 62 104 105 131
80 49 77 49 609 46 l500 -2 54 -30z"/>
<path d="M6313 3369 c-199 -25 -339 -198 -318 -394 17 -163 112 -254 325 -314
41 -12 99 -29 129 -37 97 -28 125 -85 78 -155 -17 -26 -35 -37 -75 -48 -47
-12 -56 -12 -99 4 -26 10 -68 37 -93 60 -73 67 -101 85 -132 85 -44 0 -83 -25
-123 -78 -30 -39 -36 -53 -31 -80 12 -79 147 -203 260 -238 79 -25 221 -30
292 -9 130 37 223 105 270 197 34 66 49 171 36 244 -30 168 -99 225 -347 284
-179 43 -205 60 -205 130 0 89 141 121 229 51 44 -35 81 -51 118 -51 36 0 118
85 134 140 11 36 10 44 -8 68 -77 104 -262 164 -440 141z"/>
<path d="M13980 3369 c-130 -17 -232 -91 -289 -209 -23 -48 -26 -68 -26 -150
1 -80 5 -103 25 -145 53 -108 145 -165 357 -221 155 -41 187 -71 161 -149 -17
-51 -62 -78 -133 -79 -58 0 -78 10 -190 104 -81 69 -115 69 -184 3 -77 -75
-79 -116 -11 -202 79 -100 201 -160 340 -168 195 -12 364 71 435 214 25 50 30
73 33 158 5 123 -16 189 -79 253 -55 55 -115 77 -360 134 -112 26 -150 121
-70 175 57 38 113 32 195 -22 38 -25 80 -45 93 -45 55 0 115 54 148 133 14 33
14 40 0 66 -53 104 -260 174 -445 150z"/>
<path d="M7445 3359 c-132 -22 -270 -92 -363 -185 -232 -231 -208 -664 48
-871 203 -164 447 -197 668 -92 89 43 142 92 142 133 0 39 -49 125 -91 161
-39 32 -69 29 -138 -14 -69 -43 -114 -54 -200 -49 -219 13 -350 208 -286 425
20 67 86 140 162 178 51 27 68 30 148 30 87 0 92 -1 166 -42 42 -24 86 -43 98
-43 27 0 104 70 125 114 39 83 5 137 -127 200 -117 56 -237 75 -352 55z"/>
<path d="M9622 3356 c-160 -41 -317 -165 -385 -306 -52 -107 -68 -178 -69
-300 0 -177 58 -313 184 -437 114 -111 241 -164 399 -164 179 0 283 42 404
165 92 93 136 167 165 282 24 94 26 232 5 323 -44 184 -203 357 -388 421 -79
27 -239 36 -315 16z m234 -293 c33 -11 67 -34 105 -72 69 -70 93 -132 93 -243
-1 -102 -41 -190 -116 -248 -152 -121 -364 -70 -462 110 -27 49 -28 58 -24
144 6 109 30 171 91 235 83 86 198 113 313 74z"/>
<path d="M8137 3351 c-21 -5 -48 -18 -60 -30 -22 -21 -22 -24 -25 -524 -2
-276 0 -521 3 -545 9 -60 46 -82 138 -82 87 0 123 17 136 68 6 20 11 119 11
220 l0 182 215 0 215 0 0 -194 c0 -107 4 -206 10 -220 14 -37 59 -56 135 -56
87 0 121 18 135 70 7 27 10 206 8 543 -3 566 -1 549 -75 564 -53 10 -129 7
-163 -7 -44 -18 -50 -52 -50 -266 l0 -194 -215 0 -215 0 -1 188 c0 204 -8 249
-49 269 -35 16 -108 23 -153 14z"/>
<path d="M10537 3351 c-21 -5 -48 -18 -60 -30 l-22 -22 0 -538 c0 -613 -6
-571 86 -590 61 -13 628 -14 683 -1 61 14 71 30 71 116 0 117 9 114 -301 114
l-254 0 -1 428 c0 458 -3 487 -49 509 -35 16 -108 23 -153 14z"/>
<path d="M11915 3345 c-22 -8 -49 -26 -60 -40 -39 -51 -477 -969 -482 -1010
-6 -52 19 -85 92 -119 62 -30 101 -33 133 -10 12 8 50 69 82 135 l60 119 224
0 223 0 55 -114 c31 -62 66 -123 79 -135 31 -29 78 -27 145 6 68 33 98 72 91
116 -8 47 -464 987 -495 1020 -14 15 -42 32 -61 37 -43 12 -37 12 -86 -5z m52
-683 c-55 -1 -101 -1 -104 1 -2 2 20 53 48 113 l52 109 52 -110 52 -110 -100
-3z"/>
<path d="M12745 3351 c-97 -16 -95 -1 -95 -583 0 -311 4 -507 11 -530 13 -50
49 -68 133 -68 128 0 146 25 146 205 l0 115 115 2 c63 0 121 1 127 2 7 1 41
-64 75 -144 73 -167 93 -193 152 -192 49 1 136 45 164 84 18 25 19 31 8 70 -7
24 -37 99 -67 167 -30 68 -54 128 -54 134 0 6 12 25 26 44 14 18 37 59 52 91
25 52 27 68 27 177 0 116 -1 123 -33 187 -18 37 -53 88 -78 112 -53 53 -166
112 -243 126 -59 11 -401 12 -466 1z m465 -300 c77 -40 103 -133 57 -202 -37
-57 -75 -69 -209 -69 l-118 0 0 145 0 145 118 0 c95 0 124 -4 152 -19z"/>
<path d="M14705 3351 c-97 -16 -95 -1 -95 -583 0 -311 4 -507 11 -530 13 -50
49 -68 133 -68 128 0 146 25 146 205 l0 115 109 0 c59 0 132 5 162 10 136 26
264 121 322 239 31 63 32 70 32 191 0 123 -1 126 -34 187 -64 119 -194 211
-327 233 -65 11 -396 11 -459 1z m470 -304 c52 -29 78 -78 72 -136 -6 -51 -30
-87 -77 -112 -28 -15 -57 -19 -152 -19 l-118 0 0 145 0 145 118 0 c103 0 122
-3 157 -23z"/>
<path d="M15745 3354 c-11 -3 -30 -7 -43 -10 -12 -2 -31 -19 -42 -37 -19 -31
-20 -53 -20 -538 0 -345 4 -516 11 -538 15 -43 54 -61 133 -61 138 0 146 16
146 280 l0 190 215 0 215 0 0 -189 c0 -112 4 -201 11 -220 15 -43 54 -61 134
-61 85 0 121 18 135 68 8 25 10 198 8 548 -3 482 -4 513 -21 532 -24 26 -105
44 -160 36 -101 -16 -107 -32 -107 -279 l0 -195 -215 0 -215 0 -1 193 c-1 105
-4 203 -8 216 -3 13 -18 32 -31 42 -25 18 -109 31 -145 23z"/>
<path d="M16870 3351 c-92 -18 -90 -4 -90 -595 0 -297 4 -515 10 -530 5 -14
21 -33 37 -43 25 -17 58 -18 418 -18 429 0 425 0 451 60 17 41 18 120 3 164
-20 58 -38 61 -349 61 l-280 0 0 85 0 85 189 0 c104 0 201 4 216 10 39 15 58
70 53 153 -3 61 -7 72 -31 93 -28 24 -32 24 -228 24 l-199 0 0 85 0 85 275 0
c315 0 335 4 355 65 7 20 10 66 8 100 -4 74 -22 100 -77 115 -40 11 -705 12
-761 1z"/>
<path d="M17920 3353 c-49 -8 -78 -25 -89 -52 -8 -18 -11 -184 -9 -553 l3
-527 23 -23 c18 -19 36 -23 97 -26 86 -5 127 8 144 44 6 14 11 78 11 149 l0
125 120 2 c66 0 125 1 131 2 6 1 40 -68 76 -152 71 -165 88 -187 149 -185 46
1 139 46 159 77 26 39 16 83 -55 246 l-61 142 24 27 c68 71 103 188 94 315
-13 191 -165 354 -362 386 -57 9 -403 12 -455 3z m450 -299 c57 -23 84 -65 84
-130 0 -62 -20 -96 -74 -124 -35 -18 -56 -20 -158 -18 l-117 3 -3 129 c-1 72
0 136 2 143 8 20 214 18 266 -3z"/>
<path d="M18936 3350 c-24 -4 -49 -18 -63 -34 l-23 -27 0 -524 c0 -368 3 -531
11 -549 22 -49 45 -51 459 -51 346 0 389 2 412 17 53 35 61 180 13 236 l-23
27 -296 3 -296 3 0 84 0 85 195 0 c121 0 203 4 218 11 70 32 74 222 7 256 -18
9 -84 13 -222 13 l-198 0 0 85 0 84 295 3 c284 3 295 4 315 24 43 42 49 178
12 225 -10 11 -35 24 -57 29 -47 11 -702 11 -759 0z"/>
<path d="M1090 2556 c-82 -21 -138 -48 -205 -99 -256 -194 -280 -572 -50 -802
108 -108 258 -164 413 -152 224 16 412 169 476 386 21 71 21 220 0 292 -48
166 -180 303 -345 360 -81 27 -213 34 -289 15z m192 -288 c51 -15 126 -82 149
-133 25 -53 24 -147 0 -201 -51 -113 -187 -171 -304 -130 -138 50 -202 216
-132 345 58 105 173 153 287 119z"/>
<path d="M4286 2555 c-193 -49 -354 -215 -396 -406 -17 -78 -8 -219 18 -292
134 -370 608 -477 882 -198 98 100 160 244 160 376 0 164 -97 345 -233 439
-118 82 -296 115 -431 81z m209 -292 c111 -37 180 -158 157 -273 -30 -141
-170 -228 -307 -190 -56 16 -132 81 -156 135 -20 44 -24 121 -9 176 5 19 26
54 46 77 71 84 166 110 269 75z"/>
<path d="M705 1310 c-239 -36 -429 -202 -491 -430 -16 -56 -18 -110 -19 -385
0 -304 1 -322 20 -355 12 -19 36 -43 55 -55 35 -20 48 -20 940 -20 852 0 907
1 938 18 18 10 42 32 52 50 19 30 20 52 20 357 0 359 -4 390 -62 510 -40 83
-158 203 -244 248 -125 65 -128 66 -669 68 -269 1 -513 -1 -540 -6z m1057
-313 c32 -16 75 -48 97 -73 64 -73 71 -106 71 -356 l0 -218 -720 0 -720 0 0
228 c0 207 2 231 21 272 39 87 124 154 218 170 25 5 255 8 511 7 l465 -2 57
-28z"/>
<path d="M3900 1310 c-193 -30 -356 -149 -438 -320 -22 -47 -45 -112 -51 -144
-6 -34 -11 -192 -11 -364 0 -341 2 -353 69 -394 l36 -23 912 0 c905 0 912 0
939 21 15 11 37 33 48 48 20 26 21 42 24 330 3 350 -3 402 -68 533 -70 141
-195 246 -360 299 -49 16 -106 18 -550 20 -272 1 -520 -2 -550 -6z m1057 -309
c65 -29 134 -101 159 -166 17 -44 19 -77 19 -265 l0 -215 -722 -3 -723 -2 0
218 c0 171 3 228 16 264 30 91 125 171 221 188 27 5 257 8 513 7 l465 -2 52
-24z"/>
</g>
</svg>
