<?xml version="1.0" standalone="no"?>
<!DOCTYPE svg PUBLIC "-//W3C//DTD SVG 20010904//EN"
 "http://www.w3.org/TR/2001/REC-SVG-20010904/DTD/svg10.dtd">
<svg version="1.0" xmlns="http://www.w3.org/2000/svg"
 width="570.000000pt" height="426.000000pt" viewBox="0 0 570.000000 426.000000"
 preserveAspectRatio="xMidYMid meet">

<g transform="translate(0.000000,426.000000) scale(0.100000,-0.100000)"
fill="#000000" stroke="none">
<path d="M2613 4199 c-97 -19 -177 -80 -220 -167 l-28 -57 0 -505 c0 -473 1
-508 19 -554 24 -63 86 -130 151 -164 l50 -27 422 -3 421 -3 238 -270 c141
-160 248 -272 261 -275 14 -4 34 1 48 10 31 20 31 46 10 286 -8 91 -15 184
-15 208 l0 42 105 0 c81 0 117 5 159 21 73 27 147 95 177 161 l24 53 0 510 0
510 -25 50 c-47 95 -126 155 -231 175 -63 12 -1505 12 -1566 -1z m1602 -147
c22 -13 52 -39 65 -59 l25 -37 3 -483 c2 -459 2 -485 -17 -520 -43 -86 -88
-103 -270 -103 -131 0 -142 -1 -166 -23 l-27 -23 16 -183 c9 -101 15 -186 13
-188 -2 -1 -84 89 -182 201 -99 113 -188 207 -200 210 -11 3 -204 6 -428 6
-344 0 -413 2 -444 15 -48 20 -71 41 -94 87 -18 35 -19 66 -19 509 0 458 1
474 21 515 20 43 64 78 117 94 15 5 369 8 787 7 l760 -2 40 -23z"/>
<path d="M2756 3739 c-31 -25 -34 -61 -6 -89 29 -29 158 -29 184 -1 26 28 18
82 -14 98 -41 21 -133 16 -164 -8z"/>
<path d="M3143 3750 c-45 -18 -53 -89 -13 -110 11 -6 127 -10 274 -10 213 0
257 2 270 15 36 37 27 88 -20 105 -32 12 -481 12 -511 0z"/>
<path d="M3880 3747 c-32 -16 -40 -70 -14 -98 26 -28 155 -28 184 1 27 27 25
56 -5 85 -20 21 -34 25 -82 25 -32 0 -69 -6 -83 -13z"/>
<path d="M2755 3276 c-21 -21 -25 -33 -20 -54 9 -41 32 -52 105 -52 78 0 110
17 110 59 0 50 -21 65 -98 69 -66 4 -73 2 -97 -22z"/>
<path d="M3142 3290 c-40 -17 -46 -88 -9 -112 15 -10 888 -10 903 0 39 25 36
90 -5 111 -25 14 -856 14 -889 1z"/>
<path d="M681 2915 c-153 -43 -297 -160 -363 -295 -47 -98 -62 -166 -62 -271
2 -187 100 -369 256 -471 l47 -30 -59 -40 c-121 -81 -227 -226 -265 -363 -20
-72 -78 -1132 -65 -1189 14 -65 62 -122 125 -152 11 -5 259 -12 555 -15 450
-5 545 -8 600 -22 59 -15 194 -17 1410 -17 1216 0 1351 2 1410 17 55 14 150
17 605 22 l540 6 38 24 c45 28 85 85 97 136 9 41 -32 944 -49 1086 -25 198
-123 362 -282 468 l-59 39 48 31 c103 66 194 187 233 311 28 85 30 231 5 315
-48 162 -154 293 -296 364 -103 51 -170 65 -295 59 -120 -6 -206 -36 -300
-103 -122 -87 -202 -211 -231 -362 -43 -219 60 -465 243 -581 23 -15 43 -30
43 -34 0 -3 -24 -19 -53 -36 -29 -16 -83 -62 -121 -102 -56 -60 -80 -96 -132
-204 -38 -78 -74 -171 -90 -231 -14 -55 -35 -114 -46 -132 -42 -69 -172 -102
-408 -103 -70 0 -106 -5 -135 -19 -50 -22 -109 -86 -125 -136 -11 -33 -10
-133 1 -175 4 -13 -72 -15 -631 -18 -349 -1 -641 0 -647 3 -10 3 -10 11 -2 32
28 75 5 179 -54 242 -52 55 -98 71 -207 71 -235 1 -366 33 -407 101 -12 19
-33 79 -47 134 -17 64 -51 151 -96 241 -57 118 -79 151 -131 203 -34 35 -86
76 -116 93 -29 16 -53 33 -53 37 0 3 16 15 36 26 52 28 159 146 193 213 16 32
37 85 47 118 24 79 24 228 0 309 -51 172 -189 321 -355 383 -85 32 -265 40
-350 17z m284 -132 c122 -38 240 -149 285 -270 91 -243 -53 -522 -305 -587
-162 -43 -328 5 -438 124 -119 129 -157 306 -98 460 86 226 326 344 556 273z
m4034 6 c69 -16 140 -57 203 -117 287 -274 84 -760 -318 -762 -112 0 -216 42
-301 123 -274 259 -125 719 247 766 59 8 100 5 169 -10z m-4052 -1023 c92 -25
162 -64 229 -127 53 -52 73 -82 119 -176 30 -62 67 -155 81 -205 54 -197 70
-228 139 -272 71 -47 127 -58 325 -65 120 -4 193 -11 208 -20 28 -15 62 -68
62 -96 0 -35 -39 -86 -78 -102 -56 -23 -367 -13 -473 15 -253 68 -348 192
-449 590 -17 66 -81 81 -116 27 -13 -20 -13 -30 1 -91 60 -264 163 -455 295
-547 30 -21 56 -41 57 -45 2 -4 -13 -18 -32 -31 -42 -28 -91 -100 -106 -155
-15 -56 -12 -158 6 -202 8 -20 15 -41 15 -46 0 -5 -177 -8 -437 -6 -471 3
-468 3 -492 56 -13 28 31 994 50 1097 24 134 121 277 235 345 105 63 250 85
361 56z m4046 -1 c186 -48 330 -193 371 -376 22 -94 71 -1088 56 -1121 -27
-58 -29 -58 -499 -58 -241 0 -431 4 -431 9 0 5 7 26 16 47 23 55 20 157 -6
226 -20 55 -97 148 -122 148 -19 0 -2 19 58 63 113 83 195 219 257 427 51 172
53 185 23 215 -28 28 -53 32 -79 13 -10 -8 -29 -58 -46 -123 -107 -406 -257
-529 -662 -542 -194 -7 -243 0 -280 37 -38 37 -46 74 -26 116 30 62 50 68 257
75 199 7 253 18 326 65 58 37 88 93 124 224 33 121 103 286 151 356 111 163
328 247 512 199z m-753 -1206 c92 -20 152 -92 154 -184 1 -66 -28 -121 -83
-160 l-43 -30 -1406 0 c-1581 0 -1441 -7 -1501 75 -78 107 -24 261 104 295 66
18 2694 21 2775 4z"/>
</g>
</svg>
