<?xml version="1.0" standalone="no"?>
<!DOCTYPE svg PUBLIC "-//W3C//DTD SVG 20010904//EN"
 "http://www.w3.org/TR/2001/REC-SVG-20010904/DTD/svg10.dtd">
<svg version="1.0" xmlns="http://www.w3.org/2000/svg"
 width="587.000000pt" height="552.000000pt" viewBox="0 0 587.000000 552.000000"
 preserveAspectRatio="xMidYMid meet">

<g transform="translate(0.000000,552.000000) scale(0.100000,-0.100000)"
fill="#000000" stroke="none">
<path d="M3973 5479 c-274 -26 -584 -143 -812 -306 -178 -127 -356 -325 -452
-499 l-40 -73 -265 160 c-361 217 -357 217 -415 -37 l-35 -158 -120 -61 c-268
-135 -482 -320 -626 -541 l-53 -81 -280 -5 c-318 -5 -356 -12 -473 -88 -129
-83 -226 -224 -251 -364 -7 -38 -11 -274 -11 -648 0 -622 1 -635 45 -652 9 -3
109 -6 221 -6 l204 0 0 -812 c0 -521 4 -836 11 -878 30 -189 180 -339 369
-370 45 -7 474 -10 1375 -8 l1310 3 60 24 c114 46 188 104 247 195 65 101 78
161 78 366 l0 178 -31 26 c-29 25 -36 26 -155 26 l-124 0 0 691 0 691 23 -6
c172 -43 487 -46 666 -7 220 49 447 149 631 279 121 86 306 270 393 392 129
183 232 425 273 645 26 136 26 440 1 570 -102 521 -418 951 -867 1179 -288
146 -590 205 -897 175z m395 -196 l32 -8 -46 -55 c-57 -69 -127 -211 -155
-315 -31 -112 -31 -326 -1 -436 27 -100 77 -198 142 -279 62 -76 85 -127 101
-215 29 -168 -49 -337 -186 -405 -43 -21 -64 -25 -150 -25 -90 0 -105 3 -155
28 -106 55 -156 122 -191 257 -66 260 -238 472 -472 584 -121 58 -207 79 -340
82 -60 1 -111 5 -114 8 -8 8 61 127 128 217 223 300 574 510 954 569 68 10
403 5 453 -7z m369 -118 c287 -134 540 -380 681 -661 44 -88 118 -291 109
-300 -3 -3 -47 -9 -98 -14 -158 -15 -301 -70 -424 -163 -244 -185 -368 -502
-311 -799 22 -112 57 -194 148 -345 46 -76 90 -158 98 -182 13 -42 13 -44 -11
-62 -13 -10 -57 -37 -97 -60 -247 -142 -541 -207 -810 -181 -218 22 -352 61
-547 157 -463 229 -771 676 -801 1163 l-6 97 226 200 c149 131 229 208 233
225 3 14 8 28 10 33 7 12 152 -68 208 -114 123 -101 199 -226 241 -395 28
-111 65 -181 134 -248 182 -179 466 -213 665 -82 191 126 282 366 231 606 -20
92 -54 164 -121 250 -102 133 -135 230 -135 398 0 160 42 287 133 407 45 60
110 115 135 115 7 0 56 -20 109 -45z m-2207 -693 c190 -115 345 -213 345 -218
0 -13 -613 -559 -628 -559 -6 0 -22 35 -37 79 -15 47 -35 86 -49 97 -67 55
-317 -25 -497 -159 -249 -184 -395 -439 -430 -747 -6 -53 -8 -57 -16 -35 -45
115 -61 360 -33 507 78 410 381 760 817 944 54 23 102 49 107 58 5 9 18 61 30
116 27 120 28 125 38 125 4 -1 163 -94 353 -208z m3044 -554 c20 -290 -69
-614 -241 -872 -59 -88 -204 -256 -222 -256 -3 0 -21 29 -39 65 -19 35 -60
106 -93 157 -137 214 -152 428 -45 643 112 224 311 352 552 354 l81 1 7 -92z
m-4514 -228 c0 -6 -9 -38 -20 -71 -41 -120 -53 -199 -53 -349 0 -268 73 -507
228 -746 68 -104 167 -211 205 -219 66 -15 126 56 101 119 -92 222 -106 286
-98 470 12 304 146 544 389 700 58 36 194 96 220 96 9 0 25 -33 42 -87 39
-120 53 -148 82 -162 56 -25 75 -16 205 99 68 60 126 110 129 110 3 0 13 -46
23 -102 35 -204 130 -437 257 -626 74 -111 244 -291 352 -372 102 -77 239
-157 351 -206 l87 -37 0 -719 0 -718 -1080 0 c-746 0 -1086 -3 -1103 -11 -46
-21 -51 -42 -53 -235 -1 -156 -4 -186 -21 -225 -42 -93 -125 -150 -231 -157
-81 -6 -138 16 -196 74 -82 82 -76 -63 -76 1761 l0 1623 130 0 c83 0 130 -4
130 -10z m-450 -700 l0 -690 -145 0 -145 0 0 520 c0 346 4 537 11 572 16 74
50 138 103 191 43 42 134 97 163 97 11 0 13 -130 13 -690z m3268 -2401 c2 -78
-1 -107 -18 -151 -28 -75 -79 -131 -152 -167 l-61 -31 -1108 0 -1108 0 29 62
c35 76 50 161 50 291 l0 97 1183 -2 1182 -3 3 -96z"/>
<path d="M1618 2953 c-55 -9 -89 -99 -55 -144 29 -38 44 -39 542 -39 411 0
490 2 515 15 50 26 58 101 15 144 l-25 26 -483 1 c-265 1 -494 -1 -509 -3z"/>
<path d="M1575 2365 c-19 -18 -25 -35 -25 -65 0 -30 6 -47 25 -65 l24 -25 506
0 506 0 24 25 c36 35 35 105 -1 134 -26 21 -36 21 -531 21 l-504 0 -24 -25z"/>
<path d="M1027 1819 c-26 -15 -46 -68 -40 -102 3 -15 17 -36 31 -47 24 -20 44
-20 1092 -20 l1067 0 24 26 c35 37 33 98 -4 130 l-28 24 -1062 0 c-737 -1
-1068 -4 -1080 -11z"/>
<path d="M1029 1255 c-52 -28 -58 -104 -12 -147 l25 -23 1041 -3 c738 -2 1053
0 1080 8 66 19 85 93 38 151 l-19 24 -1064 2 c-910 2 -1067 0 -1089 -12z"/>
</g>
</svg>
