<?xml version="1.0" standalone="no"?>
<!DOCTYPE svg PUBLIC "-//W3C//DTD SVG 20010904//EN"
 "http://www.w3.org/TR/2001/REC-SVG-20010904/DTD/svg10.dtd">
<svg version="1.0" xmlns="http://www.w3.org/2000/svg"
 width="547.000000pt" height="537.000000pt" viewBox="0 0 547.000000 537.000000"
 preserveAspectRatio="xMidYMid meet">

<g transform="translate(0.000000,537.000000) scale(0.100000,-0.100000)"
fill="#000000" stroke="none">
<path d="M4050 5288 c-249 -35 -488 -196 -620 -418 -256 -429 -84 -997 369
-1220 127 -62 224 -84 376 -83 188 1 331 42 474 137 173 115 302 291 362 492
29 96 36 283 16 389 -88 463 -514 769 -977 703z m355 -142 c213 -68 402 -250
478 -463 83 -228 51 -477 -86 -678 l-25 -36 -46 69 c-71 107 -135 144 -309
177 -28 6 -28 7 -13 28 108 146 131 209 131 357 0 95 -3 111 -28 163 -37 75
-108 146 -182 183 -53 26 -70 29 -150 29 -78 -1 -98 -4 -149 -29 -160 -78
-242 -253 -207 -438 15 -78 68 -189 115 -244 35 -41 35 -42 13 -48 -12 -3 -32
-6 -44 -6 -13 0 -52 -10 -89 -22 -80 -26 -152 -87 -197 -166 l-31 -55 -23 29
c-37 47 -100 183 -118 259 -20 81 -23 254 -6 330 68 298 310 531 609 585 88
17 269 4 357 -24z m-117 -312 c183 -91 188 -349 11 -532 -49 -51 -51 -56 -46
-95 8 -62 45 -90 137 -106 154 -26 193 -48 252 -140 42 -66 38 -94 -19 -136
-74 -53 -179 -101 -278 -125 -153 -38 -350 -17 -490 52 -72 35 -164 102 -169
122 -7 25 22 91 59 134 38 45 90 70 188 88 108 19 135 31 152 65 26 50 19 91
-21 130 -74 69 -124 171 -139 281 -15 100 52 219 147 267 62 31 149 29 216 -5z"/>
<path d="M1115 4805 c-308 -68 -521 -341 -502 -645 12 -189 92 -342 242 -465
113 -92 280 -144 419 -131 81 8 116 26 116 61 0 22 -22 55 -38 55 -4 1 -59 2
-122 3 -125 4 -170 16 -269 77 -63 39 -66 63 -13 118 35 38 89 62 138 62 37 0
82 21 98 45 28 43 20 83 -25 132 -56 61 -79 115 -79 189 0 52 4 67 29 101 76
105 220 86 273 -35 35 -77 6 -180 -69 -256 -31 -30 -38 -44 -38 -77 0 -58 32
-83 128 -102 56 -12 88 -24 116 -46 48 -38 87 -41 102 -7 7 14 9 36 5 50 -9
36 -90 93 -153 107 -55 13 -62 19 -39 38 7 6 26 39 41 73 57 127 42 258 -39
346 -133 145 -351 114 -444 -62 -48 -92 -31 -249 39 -347 10 -15 19 -29 19
-32 0 -3 -17 -8 -37 -12 -71 -13 -119 -46 -182 -125 l-19 -25 -36 75 c-71 150
-70 296 4 446 85 173 262 284 455 284 251 0 468 -185 506 -430 18 -118 18
-120 44 -132 19 -9 29 -7 50 6 22 14 25 23 25 74 -1 238 -183 486 -413 561
-124 41 -229 49 -332 26z"/>
<path d="M2565 4210 c-95 -9 -171 -24 -280 -55 -245 -70 -435 -185 -631 -380
-227 -227 -354 -467 -421 -795 -24 -118 -24 -401 0 -522 38 -189 113 -387 198
-520 35 -55 60 -66 94 -44 32 21 32 55 -1 112 -31 52 -30 53 86 19 47 -14 150
-39 229 -55 79 -17 147 -33 151 -35 5 -3 14 -22 21 -43 44 -135 139 -308 230
-419 54 -67 57 -73 36 -73 -47 0 -74 -61 -42 -94 18 -18 52 -28 190 -58 119
-26 379 -30 509 -9 274 45 546 173 763 359 139 119 293 330 374 511 99 223
135 408 126 661 -8 246 -47 403 -153 618 -62 124 -89 152 -129 134 -29 -13
-41 -52 -25 -81 6 -12 7 -21 2 -21 -4 0 -80 18 -167 40 -88 22 -189 45 -225
51 -73 13 -100 24 -100 42 0 21 -77 185 -124 266 -26 43 -73 110 -106 150 -33
39 -58 71 -56 71 3 0 37 -12 75 -26 68 -25 72 -26 97 -10 20 14 25 24 22 49
-3 28 -10 36 -60 59 -81 40 -265 85 -398 97 -124 12 -163 12 -285 1z m327
-156 c69 -35 159 -114 217 -191 52 -69 177 -300 167 -310 -3 -3 -42 0 -88 6
-63 8 -364 31 -420 31 -9 0 -11 494 -2 502 8 9 72 -11 126 -38z m-242 -213 l0
-249 -72 -6 c-40 -3 -140 -10 -223 -16 -82 -6 -165 -14 -182 -17 -43 -7 -43 3
7 105 70 146 166 273 261 344 53 41 150 88 182 88 l27 0 0 -249z m-392 147
c-91 -107 -207 -311 -240 -420 -10 -35 -14 -38 -67 -48 -31 -6 -139 -31 -240
-56 -101 -24 -186 -42 -189 -40 -11 12 121 179 218 276 106 106 216 187 340
250 65 33 197 88 214 89 5 1 -12 -23 -36 -51z m392 -863 l0 -345 -331 0 -332
0 7 103 c13 199 71 513 99 535 23 18 296 48 470 51 l87 1 0 -345z m535 319
c72 -9 133 -19 137 -23 27 -24 86 -350 95 -518 l6 -123 -331 0 -332 0 0 347 0
346 148 -7 c81 -3 206 -14 277 -22z m-1225 -48 c0 -3 -9 -42 -20 -88 -29 -122
-50 -277 -57 -410 l-6 -118 -275 0 -275 0 7 84 c6 91 52 282 84 357 20 45 23
48 99 73 62 20 257 70 388 99 28 7 55 8 55 3z m1645 -27 c180 -40 367 -96 376
-111 33 -53 89 -283 103 -420 l6 -58 -274 0 -274 0 -7 88 c-14 192 -54 445
-81 515 -8 22 -9 22 151 -14z m-1725 -777 c0 -91 25 -301 50 -414 25 -114 25
-108 -5 -108 -27 0 -330 76 -436 109 l-65 21 -22 62 c-34 97 -61 225 -68 316
l-7 82 277 0 276 0 0 -68z m770 -264 l0 -331 -172 6 c-159 6 -384 30 -396 41
-9 10 -51 198 -66 299 -8 56 -18 150 -22 210 l-7 107 332 0 331 0 0 -332z
m770 258 c0 -136 -62 -512 -88 -538 -15 -15 -222 -38 -399 -45 l-173 -6 0 331
0 332 330 0 330 0 0 -74z m670 57 c0 -47 -33 -228 -56 -307 -41 -144 -33 -136
-185 -179 -146 -40 -343 -87 -372 -87 -13 0 -17 5 -13 18 25 84 59 312 71 485
l7 87 274 0 c254 0 274 -1 274 -17z m-184 -608 c-19 -52 -126 -187 -225 -286
-128 -128 -233 -203 -384 -273 -103 -49 -177 -78 -177 -71 0 2 31 43 68 89 71
89 160 249 206 373 l27 72 57 11 c31 6 134 31 227 54 198 50 209 52 201 31z
m-1615 -135 c53 -5 155 -13 228 -16 l131 -7 0 -264 c0 -300 7 -281 -88 -245
-105 40 -211 136 -299 270 -55 83 -115 204 -128 255 -7 28 -7 28 26 23 19 -3
77 -10 130 -16z m999 16 c0 -17 -69 -163 -107 -227 -95 -160 -214 -275 -327
-318 -101 -37 -91 -62 -91 239 l0 265 125 7 c69 4 179 14 245 22 144 16 155
17 155 12z"/>
<path d="M4810 3430 c-196 -34 -353 -183 -405 -385 -86 -339 220 -672 566
-616 199 31 374 191 418 381 15 63 13 186 -3 246 -67 254 -321 418 -576 374z
m253 -148 c82 -41 149 -107 190 -191 29 -59 32 -74 32 -156 0 -72 -5 -102 -24
-147 -13 -32 -26 -58 -30 -58 -4 0 -22 16 -41 35 -18 19 -53 42 -77 51 -24 9
-43 18 -43 19 0 1 12 29 26 60 66 143 9 302 -125 350 -61 21 -108 19 -166 -9
-127 -59 -172 -214 -102 -352 l26 -51 -40 -12 c-21 -6 -58 -30 -80 -51 -23
-22 -45 -37 -50 -35 -23 15 -51 124 -52 201 0 71 4 91 31 147 51 109 138 188
245 223 26 9 74 13 128 11 74 -3 96 -8 152 -35z m-87 -176 c29 -29 34 -41 34
-82 0 -52 -34 -126 -70 -151 -27 -19 -34 -66 -16 -101 16 -31 44 -44 118 -57
48 -8 100 -50 96 -79 -2 -15 -23 -31 -73 -56 -66 -33 -75 -35 -170 -35 -94 0
-105 2 -168 33 -38 19 -71 40 -74 48 -8 21 34 72 70 83 17 5 51 13 74 16 29 5
50 15 63 32 31 40 25 75 -20 127 -57 67 -74 140 -45 196 21 42 53 60 103 60
37 0 50 -6 78 -34z"/>
<path d="M500 2773 c-241 -40 -430 -261 -430 -503 0 -305 283 -549 581 -501
199 31 374 191 418 381 26 113 7 248 -50 362 -90 178 -321 294 -519 261z m241
-150 c151 -75 239 -224 226 -383 -5 -61 -41 -170 -56 -170 -4 0 -22 16 -41 35
-18 19 -53 42 -77 51 -24 9 -43 18 -43 19 0 1 12 28 26 60 80 175 -27 365
-206 365 -50 0 -131 -41 -167 -85 -61 -74 -69 -194 -20 -292 l26 -50 -40 -12
c-21 -6 -58 -30 -81 -51 -23 -22 -43 -40 -45 -40 -11 0 -45 97 -54 151 -29
179 91 365 274 425 26 9 74 13 128 11 73 -3 96 -8 150 -34z m-85 -177 c29 -29
34 -41 34 -82 0 -52 -34 -126 -70 -151 -27 -19 -34 -66 -16 -101 16 -31 44
-44 118 -57 48 -8 100 -50 96 -79 -2 -15 -23 -31 -73 -56 -66 -33 -75 -35
-170 -35 -94 0 -105 2 -168 33 -38 19 -71 40 -74 48 -8 21 34 72 70 83 17 5
51 13 74 16 29 5 50 15 63 32 31 40 25 75 -20 127 -57 67 -74 140 -45 196 21
42 53 60 103 60 37 0 50 -6 78 -34z"/>
<path d="M4225 2054 c-11 -3 -29 -7 -41 -9 -40 -9 -49 -78 -13 -101 7 -4 54
-7 103 -5 106 2 182 -15 268 -61 239 -127 335 -437 212 -679 -13 -26 -28 -50
-33 -53 -5 -4 -19 10 -31 29 -29 47 -97 92 -159 107 -54 12 -60 18 -37 37 7 6
26 39 41 74 99 219 -31 443 -253 438 -152 -3 -275 -152 -258 -312 6 -62 36
-147 67 -190 10 -15 19 -29 19 -32 0 -3 -17 -8 -37 -12 -71 -13 -119 -46 -182
-125 l-20 -25 -36 78 c-25 54 -39 103 -47 163 -9 71 -15 88 -34 101 -28 18
-60 10 -75 -19 -16 -29 -4 -132 26 -227 32 -99 84 -179 171 -261 354 -333 934
-142 1035 340 16 76 6 240 -20 313 -35 99 -84 179 -151 247 -116 115 -247 175
-405 184 -49 3 -99 3 -110 0z m146 -355 c9 -4 30 -24 47 -43 70 -80 47 -206
-58 -315 -28 -29 -31 -38 -26 -69 8 -55 40 -78 128 -95 88 -18 117 -36 148
-90 21 -36 21 -39 5 -57 -24 -27 -122 -76 -189 -95 -84 -24 -230 -17 -306 15
-97 42 -150 79 -150 105 0 53 101 125 176 125 37 0 82 21 98 45 28 43 20 83
-25 132 -114 124 -107 288 14 344 42 19 100 18 138 -2z"/>
<path d="M1230 1808 c-434 -62 -760 -457 -737 -893 7 -132 26 -212 77 -321 54
-116 106 -189 203 -280 67 -64 107 -92 188 -133 148 -74 233 -94 394 -94 101
0 148 5 211 21 373 99 634 414 651 789 11 233 -49 425 -188 597 -190 236 -497
357 -799 314z m278 -124 c101 -21 197 -61 275 -117 334 -238 424 -680 208
-1019 l-38 -60 -48 72 c-72 108 -128 140 -313 176 -23 5 -23 6 -8 27 108 146
131 209 131 357 0 94 -3 111 -28 161 -41 84 -98 143 -175 181 -61 30 -75 33
-157 33 -78 -1 -98 -4 -149 -29 -160 -78 -242 -253 -207 -438 15 -78 68 -189
115 -244 35 -41 35 -42 13 -48 -12 -3 -32 -6 -44 -6 -13 0 -52 -10 -89 -22
-79 -26 -152 -87 -196 -165 -16 -29 -34 -51 -39 -48 -20 13 -90 146 -114 215
-63 184 -48 402 38 575 100 203 321 367 545 405 80 13 199 11 280 -6z m-37
-332 c60 -31 111 -96 130 -165 29 -109 -16 -248 -116 -357 -55 -59 -57 -64
-52 -104 9 -63 45 -90 143 -105 132 -21 190 -54 245 -140 53 -83 35 -115 -111
-194 -116 -63 -196 -82 -350 -82 -141 0 -225 17 -325 67 -72 36 -164 102 -169
122 -7 25 22 91 59 134 38 45 85 67 185 86 113 22 138 33 155 67 26 50 19 91
-21 130 -107 101 -163 267 -130 381 19 66 83 143 141 169 63 29 151 25 216 -9z"/>
</g>
</svg>
