<?xml version="1.0" standalone="no"?>
<!DOCTYPE svg PUBLIC "-//W3C//DTD SVG 20010904//EN"
 "http://www.w3.org/TR/2001/REC-SVG-20010904/DTD/svg10.dtd">
<svg version="1.0" xmlns="http://www.w3.org/2000/svg"
 width="608.000000pt" height="543.000000pt" viewBox="0 0 608.000000 543.000000"
 preserveAspectRatio="xMidYMid meet">

<g transform="translate(0.000000,543.000000) scale(0.100000,-0.100000)"
fill="#000000" stroke="none">
<path d="M694 5165 c-99 -22 -172 -62 -244 -134 -36 -36 -77 -89 -92 -117 -61
-114 -58 1 -58 -1965 l0 -1797 -106 -4 c-152 -4 -144 12 -144 -297 0 -189 4
-260 15 -306 48 -182 192 -322 372 -360 58 -13 431 -15 2543 -15 1442 0 2512
4 2563 10 206 21 381 173 426 370 6 25 11 158 11 296 0 315 8 297 -144 302
l-106 4 0 1789 c0 1987 4 1869 -66 1986 -64 106 -144 174 -261 221 l-68 27
-2290 2 c-1882 1 -2301 -1 -2351 -12z m4677 -166 c79 -37 133 -90 171 -167
l33 -67 3 -1807 2 -1808 -2565 0 -2565 0 2 1808 3 1807 26 55 c50 105 140 179
241 199 24 5 1067 8 2318 7 l2275 -1 56 -26z m-2941 -4151 c4 -124 8 -150 23
-165 17 -17 53 -18 561 -18 521 0 545 1 565 19 19 18 21 30 21 155 0 75 4 142
8 149 7 10 236 12 1113 10 l1104 -3 3 -175 c5 -245 -13 -313 -100 -396 -56
-54 -110 -81 -189 -94 -89 -14 -4959 -14 -5048 0 -115 19 -205 84 -257 187
-28 57 -29 60 -32 256 -2 109 -1 204 2 212 5 13 149 15 1113 13 l1108 -3 5
-147z m1020 57 l0 -95 -432 2 -433 3 -3 79 c-2 44 -1 85 2 93 4 11 86 13 436
13 l430 0 0 -95z"/>
<path d="M693 4840 c-12 -5 -26 -18 -32 -29 -8 -14 -11 -500 -11 -1596 l0
-1576 25 -24 24 -25 2319 0 2319 0 21 23 22 23 0 1581 c0 1542 0 1581 -19
1604 l-19 24 -2314 2 c-1320 1 -2322 -2 -2335 -7z m2585 -1622 c2 -1373 -1
-1581 -23 -1441 -30 200 -63 311 -133 447 -59 114 -138 221 -238 318 -121 119
-231 191 -389 255 -44 18 -80 36 -80 42 0 5 28 30 62 55 112 85 204 224 239
366 25 101 16 280 -21 389 -99 294 -391 488 -701 468 -310 -21 -550 -229 -625
-544 -63 -260 39 -541 254 -699 66 -49 70 -43 -56 -93 -197 -78 -386 -227
-518 -407 -101 -137 -188 -353 -211 -525 -7 -52 -17 -88 -23 -86 -7 3 -11 471
-13 1450 -2 1437 -2 1447 18 1467 20 20 30 20 1238 18 l1217 -3 3 -1477z
m1931 1465 l21 -18 -2 -685 -3 -685 -68 -3 c-67 -3 -68 -3 -85 29 -95 176
-228 318 -362 388 -44 23 -80 45 -80 49 0 5 18 25 39 46 129 126 157 366 65
548 -79 157 -275 254 -459 229 -131 -19 -238 -77 -305 -165 -143 -190 -130
-454 32 -623 l41 -41 -64 -33 c-170 -85 -284 -199 -368 -367 l-32 -63 -72 3
-72 3 -3 690 c-1 380 0 696 3 703 3 9 188 12 879 12 817 0 875 -1 895 -17z
m-752 -275 c157 -74 231 -256 164 -405 -28 -63 -112 -146 -177 -174 -102 -46
-241 -17 -327 67 -69 68 -98 134 -98 222 0 86 21 141 82 207 100 108 235 140
356 83z m-2302 -453 c205 -43 368 -204 411 -404 28 -133 15 -248 -42 -367 -56
-118 -182 -227 -317 -273 -270 -93 -581 69 -682 355 -19 54 -25 89 -25 161 0
118 26 201 95 303 127 187 338 272 560 225z m2378 -334 c144 -51 244 -125 328
-245 36 -51 46 -72 37 -78 -20 -12 -1126 -10 -1133 2 -11 19 46 103 118 173
76 74 185 134 292 162 85 21 279 14 358 -14z m697 -1163 c0 -781 8 -718 -91
-718 l-57 0 -42 78 c-81 149 -205 273 -350 348 -30 15 -57 29 -59 31 -2 1 14
22 36 47 164 186 164 462 1 641 -61 67 -119 102 -207 127 -208 57 -435 -33
-529 -210 -67 -125 -78 -264 -32 -397 22 -66 79 -155 118 -186 29 -23 32 -19
-38 -54 -88 -45 -160 -98 -231 -171 -62 -65 -139 -181 -154 -232 -6 -22 -11
-23 -83 -20 l-77 3 -3 698 -2 697 900 0 900 0 0 -682z m-768 393 c110 -53 182
-165 183 -281 0 -200 -209 -362 -396 -306 -185 55 -282 254 -205 422 34 73
108 146 179 174 70 27 173 23 239 -9z m-2162 -149 c147 -39 258 -92 375 -179
223 -166 376 -416 420 -685 7 -46 10 -86 6 -91 -4 -4 -484 -6 -1066 -5 l-1060
3 3 45 c11 156 94 368 202 512 71 94 197 209 293 266 133 80 244 120 437 156
62 11 317 -3 390 -22z m2118 -612 c192 -25 356 -125 452 -277 17 -26 30 -53
30 -60 0 -11 -108 -13 -570 -13 -426 0 -570 3 -570 12 0 49 165 220 258 267
137 68 256 90 400 71z"/>
</g>
</svg>
